<svg xmlns="http://www.w3.org/2000/svg" width="80mm" height="80mm" viewBox="0 0 226.77 226.77">
  <g>
    <path d="M159.51,125.34a6.19,6.19,0,0,0,5.44-2.78q1.9-2.78,1.92-8.1V112.8q0-5.37-1.92-8.16a6.79,6.79,0,0,0-10.95,0q-1.92,2.75-1.95,8.07v1.66q0,5.23,1.92,8.11A6.25,6.25,0,0,0,159.51,125.34Z" style="fill: #fff"/>
    <path d="M96.79,77.34a6.19,6.19,0,0,0,5.44-2.78q1.9-2.78,1.92-8.1V64.8q0-5.37-1.92-8.16a6.79,6.79,0,0,0-10.95,0q-1.92,2.75-1.95,8.07v1.66q0,5.23,1.92,8.11A6.25,6.25,0,0,0,96.79,77.34Z" style="fill: #fff"/>
    <path d="M131.71,150.21h-5.65v10.24h5.67a5.81,5.81,0,0,0,4.1-1.35,4.82,4.82,0,0,0,1.45-3.71,5.16,5.16,0,0,0-1.37-3.8A5.7,5.7,0,0,0,131.71,150.21Z" style="fill: #fff"/>
    <path d="M113.39,0A113.38,113.38,0,1,0,226.77,113.39,113.39,113.39,0,0,0,113.39,0Zm2.67,48.51h7V71q0,3.35,1.61,4.89a6.16,6.16,0,0,0,4.44,1.54q5.93,0,6-6.23V48.51h7.05V71a11.51,11.51,0,0,1-3.5,8.86q-3.5,3.26-9.57,3.26t-9.49-3.16a11.31,11.31,0,0,1-3.59-8.7V48.51ZM82.21,64.85A20.49,20.49,0,0,1,84,56a13.52,13.52,0,0,1,5.13-5.88,15,15,0,0,1,15.16,0A13.52,13.52,0,0,1,109.46,56a20.43,20.43,0,0,1,1.82,8.85v1.52a20.6,20.6,0,0,1-1.78,8.84A13.41,13.41,0,0,1,104.4,81a15.06,15.06,0,0,1-15.18,0,13.55,13.55,0,0,1-5.16-5.82,20,20,0,0,1-1.85-8.71V64.85ZM59,48.51L66,63.88l7.1-15.37h7.69L69.6,70.26V82.63H62.46V70.26L51.25,48.51H59Zm-5.2,48h7V125H75.72v5.65h-22V96.51Zm28.29,82.12H75V164H61.31v14.63h-7V144.51h7v13.83H75V144.51h7v34.13ZM79.7,123.24a20,20,0,0,1-1.85-8.71v-1.69A20.49,20.49,0,0,1,79.66,104a13.52,13.52,0,0,1,5.13-5.88,15,15,0,0,1,15.16,0,13.52,13.52,0,0,1,5.13,5.88,20.43,20.43,0,0,1,1.82,8.85v1.52a20.6,20.6,0,0,1-1.78,8.84A13.41,13.41,0,0,1,100,129a15.06,15.06,0,0,1-15.18,0A13.55,13.55,0,0,1,79.7,123.24ZM113,178.63H90.11V144.51h22.83v5.7H97.14v8.13h13.5v5.46H97.14V173H113v5.65Zm0.67-55.08a19.76,19.76,0,0,1-1.86-8.65v-2.32a21,21,0,0,1,1.72-8.85,12.75,12.75,0,0,1,5-5.72,14.31,14.31,0,0,1,7.61-2q6.07,0,9.49,2.89t4.05,8.43H132.8a6.8,6.8,0,0,0-2.07-4.29,6.62,6.62,0,0,0-4.42-1.36,6.23,6.23,0,0,0-5.46,2.7q-1.87,2.7-1.9,8v2.18q0,5.37,2,8.11a7,7,0,0,0,6,2.74q4,0,5.65-1.69v-5.88h-6.4v-5.18h13.43v13.62a12.2,12.2,0,0,1-5.37,3.53,22.48,22.48,0,0,1-7.69,1.25,15.23,15.23,0,0,1-7.77-1.93A12.9,12.9,0,0,1,113.66,123.56Zm31.95,55.08h-7.55l-6.4-12.49h-5.6v12.49h-7V144.51h12.68q6,0,9.33,2.7a9.3,9.3,0,0,1,3.28,7.62,10.5,10.5,0,0,1-1.51,5.82,10.31,10.31,0,0,1-4.58,3.71l7.38,13.95v0.33Zm1.17-55.39a20,20,0,0,1-1.85-8.71v-1.69a20.49,20.49,0,0,1,1.82-8.87,13.52,13.52,0,0,1,5.13-5.88,15,15,0,0,1,15.16,0,13.52,13.52,0,0,1,5.13,5.88,20.43,20.43,0,0,1,1.82,8.85v1.52a20.6,20.6,0,0,1-1.78,8.84,13.41,13.41,0,0,1-5.1,5.86,15.06,15.06,0,0,1-15.18,0A13.55,13.55,0,0,1,146.78,123.24Zm27.68,55.39H151.58V144.51h22.83v5.7h-15.8v8.13h13.5v5.46h-13.5V173h15.84v5.65Zm0.1-96H167l-6.4-12.49H155V82.63h-7V48.51h12.68q6,0,9.33,2.7a9.3,9.3,0,0,1,3.28,7.62,10.5,10.5,0,0,1-1.51,5.82,10.31,10.31,0,0,1-4.58,3.71l7.38,13.95v0.33Z" style="fill: #fff"/>
    <path d="M97.86,122.56q1.9-2.78,1.92-8.1V112.8q0-5.37-1.92-8.16a6.79,6.79,0,0,0-10.95,0Q85,107.36,85,112.68v1.66q0,5.23,1.92,8.11A6.73,6.73,0,0,0,97.86,122.56Z" style="fill: #fff"/>
    <path d="M160.66,54.21H155V64.45h5.67a5.81,5.81,0,0,0,4.1-1.35,4.82,4.82,0,0,0,1.45-3.71,5.16,5.16,0,0,0-1.37-3.8A5.7,5.7,0,0,0,160.66,54.21Z" style="fill: #fff"/>
  </g>
</svg>
